<svg width="160" height="55" viewBox="0 0 160 55" fill="none" xmlns="http://www.w3.org/2000/svg">
<g clip-path="url(#clip0_5_309)">
<path d="M49.6402 37.6522C45.8248 37.6522 44.0276 35.5114 44.0276 31.5069V30.3483H48.949V33.1188C48.949 33.8744 49.1425 34.1262 49.6679 34.1262C50.1932 34.1262 50.3867 33.8744 50.3867 33.1188V31.5825C50.3867 30.5499 49.9996 30.0713 49.3084 29.5676L47.1519 27.9558C45.2442 26.5201 44 25.0594 44 22.4149C44 19.0148 45.963 17 49.6679 17C53.1515 17 55.1975 18.8637 55.1975 22.0875V23.7749H50.3038V21.5334C50.3038 20.7778 50.1102 20.526 49.5849 20.526C49.0872 20.526 48.8937 20.7778 48.8937 21.5334V22.566C48.8937 23.5986 49.2808 24.0771 49.972 24.5809L52.1009 26.1676C53.9257 27.5275 55.3081 28.7113 55.3081 31.8846C55.3081 35.738 53.3727 37.6522 49.6402 37.6522Z" fill="white" style="fill:white;fill-opacity:1;"/>
<path d="M55.9908 37.4002V17.2517H60.8016V33.7482H64.9488V37.4002H55.9908Z" fill="white" style="fill:white;fill-opacity:1;"/>
<path d="M70.4174 37.6522C66.6019 37.6522 64.8049 35.5114 64.8049 31.5069V30.3483H69.7262V33.1188C69.7262 33.8744 69.9197 34.1262 70.4451 34.1262C70.9704 34.1262 71.1639 33.8744 71.1639 33.1188V31.5825C71.1639 30.5499 70.7769 30.0713 70.0857 29.5676L67.9291 27.9558C66.0214 26.5201 64.7772 25.0594 64.7772 22.4149C64.7772 19.0148 66.7402 17 70.4451 17C73.9287 17 75.9747 18.8637 75.9747 22.0875V23.7749H71.081V21.5334C71.081 20.7778 70.8875 20.526 70.3621 20.526C69.8645 20.526 69.671 20.7778 69.671 21.5334V22.566C69.671 23.5986 70.058 24.0771 70.7492 24.5809L72.8781 26.1676C74.7029 27.5275 76.0853 28.7113 76.0853 31.8846C76.0853 35.738 74.1499 37.6522 70.4174 37.6522Z" fill="white" style="fill:white;fill-opacity:1;"/>
<path d="M76.7679 37.4002V17.2517H82.4082C86.6936 17.2517 87.9378 19.6947 87.9378 22.4903V22.9688C87.9378 25.1852 86.9148 26.2681 85.2005 26.8474C86.97 27.5022 87.993 28.7867 87.993 31.1037V31.532C87.993 35.2594 86.6936 37.4002 82.574 37.4002H76.7679ZM81.5787 33.7482H81.9381C82.7952 33.7482 83.0717 33.4964 83.0717 32.5394V30.1467C83.0717 29.1897 82.7952 28.9378 81.9381 28.9378H81.5787V33.7482ZM81.5787 25.2859H81.8828C82.7399 25.2859 83.0164 25.0341 83.0164 24.077V22.1125C83.0164 21.1555 82.7399 20.9036 81.9104 20.9036H81.5787V25.2859Z" fill="white" style="fill:white;fill-opacity:1;"/>
<path d="M88.7764 37.4002V17.2517H94.1402L95.8543 27.0489L97.5685 17.2517H102.932V37.4002H98.6744V27.8044L96.7944 37.4002H94.9143L93.0342 27.8044V37.4002H88.7764Z" fill="white" style="fill:white;fill-opacity:1;"/>
<path d="M104.025 37.4002V17.2517H109.665C113.951 17.2517 115.195 19.6947 115.195 22.4903V22.9688C115.195 25.1852 114.172 26.2681 112.458 26.8474C114.227 27.5022 115.25 28.7867 115.25 31.1037V31.532C115.25 35.2594 113.951 37.4002 109.831 37.4002H104.025ZM108.836 33.7482H109.195C110.052 33.7482 110.329 33.4964 110.329 32.5394V30.1467C110.329 29.1897 110.052 28.9378 109.195 28.9378H108.836V33.7482ZM108.836 25.2859H109.14C109.997 25.2859 110.273 25.0341 110.273 24.077V22.1125C110.273 21.1555 109.997 20.9036 109.168 20.9036H108.836V25.2859Z" fill="white" style="fill:white;fill-opacity:1;"/>
</g>
<defs>
<clipPath id="clip0_5_309">
<rect width="71.25" height="20.6522" fill="white" style="fill:white;fill-opacity:1;" transform="translate(44 17)"/>
</clipPath>
</defs>
</svg>
