<svg width="160" height="55" viewBox="0 0 160 55" fill="none" xmlns="http://www.w3.org/2000/svg">
<g clip-path="url(#clip0_5_251)">
<path d="M53.7063 35.811L48 21.3457H52.8503L54.6336 26.4029C55.4799 28.8703 55.9555 30.4053 56.0601 31.0081C56.2313 30.1699 56.7496 28.6349 57.6151 26.4029L59.5695 21.3457H64.2487L58.1429 35.811H53.7063Z" fill="white" style="fill:white;fill-opacity:1;"/>
<path d="M68.0223 19.0855C67.309 19.0855 66.7003 18.8407 66.1963 18.351C65.7017 17.8518 65.4544 17.2491 65.4544 16.5428C65.4544 15.8365 65.7017 15.2432 66.1963 14.7629C66.7003 14.2732 67.309 14.0283 68.0223 14.0283C68.7261 14.0283 69.3252 14.2732 69.8197 14.7629C70.3238 15.2432 70.5758 15.8365 70.5758 16.5428C70.5758 17.2491 70.3238 17.8518 69.8197 18.351C69.3252 18.8407 68.7261 19.0855 68.0223 19.0855ZM65.811 35.8111V21.3458H70.3048V35.8111H65.811Z" fill="white" style="fill:white;fill-opacity:1;"/>
<path d="M77.5448 35.811L71.8384 21.3457H76.6889L78.472 26.4029C79.3185 28.8703 79.794 30.4053 79.8986 31.0081C80.0698 30.1699 80.5881 28.6349 81.4536 26.4029L83.4079 21.3457H88.0871L81.9814 35.811H77.5448Z" fill="white" style="fill:white;fill-opacity:1;"/>
<path d="M91.8607 19.0855C91.1474 19.0855 90.5388 18.8407 90.0347 18.351C89.5401 17.8518 89.2928 17.2491 89.2928 16.5428C89.2928 15.8365 89.5401 15.2432 90.0347 14.7629C90.5388 14.2732 91.1474 14.0283 91.8607 14.0283C92.5644 14.0283 93.1636 14.2732 93.6582 14.7629C94.1622 15.2432 94.4142 15.8365 94.4142 16.5428C94.4142 17.2491 94.1622 17.8518 93.6582 18.351C93.1636 18.8407 92.5644 19.0855 91.8607 19.0855ZM89.6495 35.8111V21.3458H94.1432V35.8111H89.6495Z" fill="white" style="fill:white;fill-opacity:1;"/>
<path d="M103.367 36.1924C101.265 36.1924 99.5812 35.5097 98.3164 34.1441C97.0609 32.7785 96.4333 30.9515 96.4333 28.6631C96.4333 26.337 97.0847 24.4582 98.3877 23.0267C99.7001 21.5952 101.455 20.8795 103.652 20.8795C104.555 20.8795 105.407 21.0443 106.205 21.3739C107.014 21.7036 107.627 22.1368 108.046 22.6736V14H112.539V35.811H108.302L108.074 33.9605C107.675 34.6291 107.047 35.1706 106.191 35.585C105.345 35.9899 104.403 36.1924 103.367 36.1924ZM104.451 32.1099C105.506 32.1099 106.362 31.7803 107.018 31.1211C107.675 30.4524 108.003 29.5766 108.003 28.4936C108.003 27.4106 107.675 26.5395 107.018 25.8802C106.362 25.2115 105.506 24.8773 104.451 24.8773C103.385 24.8773 102.539 25.2115 101.911 25.8802C101.284 26.5395 100.97 27.4106 100.97 28.4936C100.97 29.5766 101.284 30.4524 101.911 31.1211C102.539 31.7803 103.385 32.1099 104.451 32.1099Z" fill="white" style="fill:white;fill-opacity:1;"/>
</g>
<defs>
<clipPath id="clip0_5_251">
<rect width="64.5392" height="26.3535" fill="white" style="fill:white;fill-opacity:1;" transform="translate(48 14)"/>
</clipPath>
</defs>
</svg>
