<svg width="160" height="55" viewBox="0 0 160 55" fill="none" xmlns="http://www.w3.org/2000/svg">
<g clip-path="url(#clip0_5_262)">
<path d="M55.264 24.1181L51.2951 33.5456H56.0382V39.0252H42.6172L46.5861 29.5978H42V24.1181H55.264ZM66.7339 24.1181V39.0252H61.1887V24.1181H66.7339ZM85.7985 24.1181C88.771 24.1184 91.182 26.5019 91.182 29.4396V39.0252H85.638V30.7349C85.638 30.1082 85.122 29.5981 84.488 29.5978H78.0503V39.0252H72.5051V24.1181H85.7985ZM102.352 24.1181V39.0252H96.808V24.1181H102.352ZM113.365 20.3437V24.1181H118.75V29.5978H113.365V32.4084C113.365 33.0353 113.881 33.5454 114.515 33.5456H118.75V39.0252H113.205C110.232 39.025 107.82 36.6416 107.82 33.7037V20.3437H113.365ZM63.9595 16C65.6079 16 66.94 17.3196 66.94 18.9453C66.9398 20.5708 65.6043 21.8895 63.9595 21.8895C62.3149 21.8893 60.9805 20.5707 60.9802 18.9453C60.9802 17.3198 62.3148 16.0002 63.9595 16ZM99.5777 16C101.223 16 102.558 17.3196 102.558 18.9453C102.558 20.5708 101.223 21.8895 99.5777 21.8895C97.9331 21.8893 96.5986 20.5707 96.5984 18.9453C96.5984 17.3198 97.933 16.0002 99.5777 16Z" fill="white" style="fill:white;fill-opacity:1;"/>
</g>
<defs>
<clipPath id="clip0_5_262">
<rect width="76.75" height="23.9844" fill="white" style="fill:white;fill-opacity:1;" transform="translate(42 16)"/>
</clipPath>
</defs>
</svg>
